# xmcd
#
# Track frame offsets: 
#        150
#        21460
#        53493
#        73658
#        89637
#        105381
#        131277
#        156034
#        185004
#        208482
#        227235
#        238519
#        255403
#
# Disc length: 3619 seconds
#
# Revision: 0
# Processed by: cddbd v1.5.1PL2 Copyright (c) Steve Scherf et al.
# Submitted via: ExactAudioCopy v0.95b3
#
DISCID=b20e210d
DTITLE=Philippe LeJeune - Blues Inspiration
DYEAR=2003
DGENRE=Blues
TTITLE0=Atlanta Blues
TTITLE1=Satin Doll
TTITLE2=After Hours
TTITLE3=Waltz' in the Blues
TTITLE4=Hip Boogie-Woogie
TTITLE5=Stick with It
TTITLE6=Song for My Father
TTITLE7=Girl Talk
TTITLE8=Rockhouse
TTITLE9=Cantabile
TTITLE10=Cow Cow Blues
TTITLE11=Ahmad's Blues
TTITLE12=Keep Up
EXTD=
EXTT0=
EXTT1=
EXTT2=
EXTT3=
EXTT4=
EXTT5=
EXTT6=
EXTT7=
EXTT8=
EXTT9=
EXTT10=
EXTT11=
EXTT12=
PLAYORDER=
